# Blender v2.63 (sub 17) OBJ File: 'stapler.blend'
# www.blender.org
mtllib model/obj/stapler.mtl
o Stapler_meStapler
v 0.780336 0.259938 -0.510543
v 0.780336 0.009938 -0.519543
v -2.595664 0.012938 -0.589543
v -2.514664 0.262938 -0.580543
v 0.780336 0.259938 0.481457
v -2.514664 0.262938 0.551457
v -2.595664 0.012938 0.560457
v 0.780336 0.009938 0.490457
v 0.780336 0.009938 -0.519543
v 0.780336 0.009938 0.490457
v -2.595664 0.012938 0.560457
v -2.595664 0.012938 -0.589543
v -2.595664 0.012938 -0.589543
v -2.595664 0.012938 0.560457
v -2.514664 0.262938 0.551457
v -2.514664 0.262938 -0.580543
v 0.780336 0.259938 0.481457
v 0.780336 0.259938 -0.510543
v -2.514664 0.262938 -0.580543
v -2.514664 0.262938 0.551457
v 0.780336 0.259938 -0.510543
v 0.780336 0.259938 0.481457
v 1.043336 0.683938 0.461457
v 1.043336 0.683938 -0.491543
v 1.032336 0.009938 -0.515543
v 1.032336 0.009938 0.485457
v 1.032336 0.009938 0.485457
v 1.043336 0.683938 0.461457
v 1.043336 0.683938 -0.491543
v 1.032336 0.009938 -0.515543
v 2.272336 0.751938 -0.467543
v 2.409336 0.007938 -0.491543
v 2.409336 0.007938 0.461457
v 2.272336 0.751938 0.438457
v 2.409336 0.007938 -0.491543
v 2.409336 0.007938 0.461457
v 1.043336 0.683938 -0.491543
v 1.043336 0.683938 0.461457
v 2.272336 0.751938 0.438457
v 2.272336 0.751938 -0.467543
v 2.272336 0.751938 -0.467543
v 2.272336 0.751938 0.438457
v 2.409336 0.007938 0.461457
v 2.409336 0.007938 -0.491543
v 1.729336 0.292938 -0.402543
v -2.230664 0.292938 -0.402543
v -2.230664 0.292938 0.382457
v 1.729336 0.292938 0.382457
v 1.729336 0.207938 0.382457
v 1.729336 0.292938 0.382457
v -2.230664 0.292938 0.382457
v -2.230664 0.207938 0.382457
v -2.230664 0.207938 0.382457
v -2.230664 0.292938 0.382457
v -2.230664 0.292938 -0.402543
v -2.230664 0.207938 -0.402543
v 1.729336 0.292938 -0.402543
v 1.729336 0.207938 -0.402543
v -2.230664 0.207938 -0.402543
v -2.230664 0.292938 -0.402543
v 2.081336 0.887938 -0.309543
v 2.085336 0.473938 -0.309543
v -2.092664 0.477938 -0.309543
v -2.103664 0.962938 -0.309543
v 2.081336 0.887938 0.290457
v -2.103664 0.962938 0.290457
v -2.092664 0.477938 0.290457
v 2.085336 0.473938 0.290457
v 2.081336 0.887938 -0.309543
v 2.081336 0.887938 0.290457
v 2.085336 0.473938 0.290457
v 2.085336 0.473938 -0.309543
v 2.085336 0.473938 -0.309543
v 2.085336 0.473938 0.290457
v -2.092664 0.477938 0.290457
v -2.092664 0.477938 -0.309543
v -2.092664 0.477938 -0.309543
v -2.092664 0.477938 0.290457
v -2.103664 0.962938 0.290457
v -2.103664 0.962938 -0.309543
v 0.211336 1.235938 -0.375543
v -2.045664 1.380938 -0.375543
v -2.045664 1.380938 0.356457
v 0.211336 1.235938 0.356457
v 0.183336 0.710938 0.356457
v 0.211336 1.235938 0.356457
v -2.045664 1.380938 0.356457
v -2.204664 0.866938 0.356457
v -2.204664 0.866938 0.356457
v -2.045664 1.380938 0.356457
v -2.045664 1.380938 -0.375543
v -2.204664 0.866938 -0.375543
v 0.211336 1.235938 -0.375543
v 0.183336 0.710938 -0.375543
v -2.204664 0.866938 -0.375543
v -2.045664 1.380938 -0.375543
v 1.282336 0.640938 0.356457
v 1.436336 1.073938 0.356457
v 1.436336 1.073938 -0.375543
v 1.282336 0.640938 -0.375543
v 1.436336 1.073938 0.356457
v 1.436336 1.073938 -0.375543
v 2.341336 0.862938 0.356457
v 2.341336 0.862938 -0.375543
v 2.341336 0.862938 -0.375543
v 2.338336 0.575938 -0.375543
v 2.338336 0.575938 0.356457
v 2.341336 0.862938 0.356457
v -0.491664 1.369938 -0.417543
v -0.500664 1.213938 -0.422543
v -1.761664 1.129938 -0.447543
v -2.078664 1.463938 0.422457
v -2.327664 0.809938 0.449457
v -1.947664 0.783938 0.444457
v -0.491664 1.369938 0.398457
v -0.491664 1.369938 -0.417543
v -2.078664 1.463938 -0.441543
v -2.078664 1.463938 0.422457
v -1.761664 1.129938 0.428457
v -0.500664 1.213938 0.403457
v -0.491664 1.369938 0.398457
v -1.947664 0.783938 -0.463543
v -2.078664 1.463938 -0.441543
v -2.327664 0.809938 -0.468543
v -2.327664 0.809938 -0.468543
v -2.327664 0.809938 0.449457
v -2.078664 1.463938 0.422457
v -2.078664 1.463938 -0.441543
v -0.491664 1.369938 -0.417543
v -0.491664 1.369938 0.398457
v -0.500664 1.213938 0.403457
v -0.500664 1.213938 -0.422543
vt 0.399069 0.173389
vt 0.399069 0.146728
vt 0.856586 0.147048
vt 0.845609 0.173709
vt 0.644049 0.267192
vt 0.197509 0.267512
vt 0.186532 0.240851
vt 0.644049 0.240531
vt 0.644049 0.012840
vt 0.644049 0.120549
vt 0.186532 0.128014
vt 0.186532 0.005375
vt 0.012048 0.221264
vt 0.167896 0.221264
vt 0.166676 0.247925
vt 0.013267 0.247925
vt 0.644049 0.328086
vt 0.644049 0.433876
vt 0.197509 0.441341
vt 0.197509 0.320620
vt 0.022754 0.247605
vt 0.157190 0.247605
vt 0.154479 0.292822
vt 0.025329 0.292822
vt 0.678200 0.013266
vt 0.678200 0.120016
vt 0.678200 0.240531
vt 0.679691 0.312409
vt 0.363427 0.218606
vt 0.364917 0.146728
vt 0.196872 0.225858
vt 0.178306 0.146515
vt 0.864811 0.240318
vt 0.846245 0.319661
vt 0.864811 0.015826
vt 0.864811 0.117457
vt 0.679691 0.431850
vt 0.679691 0.330218
vt 0.846245 0.332671
vt 0.846245 0.429291
vt 0.153134 0.206421
vt 0.030352 0.206421
vt 0.027235 0.127078
vt 0.156386 0.127078
vt 0.992569 0.616666
vt 0.505720 0.616666
vt 0.505720 0.521726
vt 0.992569 0.521726
vt 0.992569 0.505886
vt 0.992569 0.516166
vt 0.505720 0.516166
vt 0.505720 0.505886
vt 0.483936 0.520509
vt 0.499373 0.520509
vt 0.499373 0.617351
vt 0.483936 0.617351
vt 0.992743 0.622981
vt 0.992743 0.636193
vt 0.504533 0.636193
vt 0.504533 0.622981
vt 0.067938 0.642311
vt 0.067547 0.592099
vt 0.476277 0.592584
vt 0.477353 0.651407
vt 0.475515 0.572046
vt 0.066100 0.581143
vt 0.067176 0.522320
vt 0.475906 0.521835
vt 0.067547 0.642311
vt 0.008850 0.642311
vt 0.008850 0.592099
vt 0.475906 0.449064
vt 0.067176 0.521835
vt 0.067176 0.449064
vt 0.007403 0.522320
vt 0.066100 0.522320
vt 0.007403 0.581143
vt 0.687073 0.989736
vt 0.376457 0.989736
vt 0.376457 0.891367
vt 0.687073 0.891367
vt 0.683220 0.801330
vt 0.687073 0.871881
vt 0.354575 0.822294
vt 0.478531 0.732573
vt 0.478531 0.801646
vt 0.377791 0.801646
vt 0.377791 0.732573
vt 0.661344 0.746913
vt 0.665198 0.676361
vt 0.993842 0.697325
vt 0.971960 0.766398
vt 0.834468 0.791923
vt 0.855662 0.850111
vt 0.492755 0.725143
vt 0.513950 0.666954
vt 0.855662 0.891367
vt 0.855662 0.989736
vt 0.980211 0.891367
vt 0.980211 0.989736
vt 0.368206 0.696788
vt 0.368619 0.658220
vt 0.979798 0.783188
vt 0.980211 0.821756
vt 0.116925 0.750295
vt 0.117969 0.729282
vt 0.264156 0.717967
vt 0.146386 0.858455
vt 0.117520 0.770363
vt 0.161573 0.766860
vt 0.330366 0.865325
vt 0.330366 0.975238
vt 0.146386 0.978471
vt 0.146386 0.862092
vt 0.183136 0.813466
vt 0.329323 0.824780
vt 0.330366 0.845793
vt 0.285718 0.671361
vt 0.300905 0.762956
vt 0.329772 0.674864
vt 0.011097 0.770363
vt 0.114390 0.858455
vt 0.014227 0.858455
vt 0.111013 0.750295
vt 0.016415 0.750295
vt 0.015835 0.729282
vt 0.111593 0.729282
vn 0.021000 0.032571 -0.999249
vn 0.021000 0.032571 0.999249
vn -0.000889 -1.000000 -0.000000
vn -0.951314 0.308225 0.000000
vn 0.000910 1.000000 -0.000000
vn -0.849795 0.527113 0.000000
vn 0.000000 -1.000000 -0.000000
vn 0.019314 0.035455 0.999185
vn 0.015396 0.035504 -0.999251
vn 0.017509 0.035380 -0.999220
vn 0.017144 0.034644 0.999253
vn -0.001452 -0.999999 -0.000000
vn -0.055245 0.998473 0.000000
vn 0.983466 0.181095 0.000000
vn 0.000000 1.000000 0.000000
vn -0.000000 0.000000 1.000000
vn -1.000000 0.000000 0.000000
vn 0.000000 0.000000 -1.000000
vn 0.999953 0.009661 0.000000
vn -0.000957 -1.000000 -0.000000
vn -0.999743 -0.022675 -0.000000
vn 0.064112 0.997943 0.000000
vn -0.955336 0.295522 -0.000000
vn 0.131103 0.991369 -0.000000
vn 0.227060 0.973881 -0.000000
vn 0.017747 0.031007 -0.999362
vn 0.015565 0.035327 0.999255
vn 0.059128 0.998250 -0.000000
vn 0.017747 0.031007 0.999362
vn 0.017139 0.034217 0.999268
vn 0.019006 0.035988 -0.999172
vn 0.017139 0.034217 -0.999268
vn 0.015565 0.035327 -0.999255
vn 0.019006 0.035988 0.999172
vn -0.934556 0.355817 0.000000
vn 0.998340 -0.057597 0.000000
usemtl body_base
s off
f 1/1/1 2/2/1 3/3/1 4/4/1
f 5/5/2 6/6/2 7/7/2 8/8/2
f 9/9/3 10/10/3 11/11/3 12/12/3
f 13/13/4 14/14/4 15/15/4 16/16/4
f 17/17/5 18/18/5 19/19/5 20/20/5
f 21/21/6 22/22/6 23/23/6 24/24/6
f 10/10/7 9/9/7 25/25/7 26/26/7
f 5/5/8 8/8/8 27/27/8 28/28/8
f 2/2/9 1/1/9 29/29/9 30/30/9
f 30/30/10 29/29/10 31/31/10 32/32/10
f 28/28/11 27/27/11 33/33/11 34/34/11
f 26/26/12 25/25/12 35/35/12 36/36/12
f 37/37/13 38/38/13 39/39/13 40/40/13
f 41/41/14 42/42/14 43/43/14 44/44/14
usemtl metal_base
f 45/45/15 46/46/15 47/47/15 48/48/15
f 49/49/16 50/50/16 51/51/16 52/52/16
f 53/53/17 54/54/17 55/55/17 56/56/17
f 57/57/18 58/58/18 59/59/18 60/60/18
usemtl metal_tray
f 61/61/18 62/62/18 63/63/18 64/64/18
f 65/65/16 66/66/16 67/67/16 68/68/16
f 69/69/19 70/70/19 71/71/19 72/62/19
f 73/72/20 74/68/20 75/73/20 76/74/20
f 77/75/21 78/76/21 79/66/21 80/77/21
usemtl body_top
f 81/78/22 82/79/22 83/80/22 84/81/22
f 85/82/16 86/83/16 87/80/16 88/84/16
f 89/85/23 90/86/23 91/87/23 92/88/23
f 93/89/18 94/90/18 95/91/18 96/92/18
f 86/83/16 85/82/16 97/93/16 98/94/16
f 94/90/18 93/89/18 99/95/18 100/96/18
f 81/78/24 84/81/24 101/97/24 102/98/24
f 102/98/25 101/97/25 103/99/25 104/100/25
f 100/96/18 99/95/18 105/101/18 106/102/18
f 98/94/16 97/93/16 107/103/16 108/104/16
usemtl top_cap
f 109/105/26 110/106/26 111/107/26
f 112/108/27 113/109/27 114/110/27
f 115/111/28 116/112/28 117/113/28 118/114/28
f 119/115/29 120/116/29 121/117/29
f 119/115/30 121/117/30 112/108/30
f 111/107/31 122/118/31 123/119/31
f 123/119/32 109/105/32 111/107/32
f 122/118/33 124/120/33 123/119/33
f 114/110/34 119/115/34 112/108/34
f 125/121/35 126/109/35 127/122/35 128/123/35
f 129/124/36 130/125/36 131/126/36 132/127/36
